<svg version="1.0" xmlns="http://www.w3.org/2000/svg"
 width="1216px" style="transform:scale(1,1.001);" height="684px" viewBox="0 0 320.000000 180.000000"
 preserveAspectRatio="xMidYMid meet">
<g transform="translate(0.000000,180.000000) scale(0.100000,-0.100000)"
fill="#000000" stroke="none">
<path d="M0 905 l0 -895 376 0 377 0 -6 36 c-4 20 -15 47 -27 59 -25 26 -25 40 -1 73
22 31 46 101 56 157 30 184 58 272 110 355 37 58 41 86 16 102 -12 7 -21 18
-21 25 0 19 91 193 128 245 26 37 50 56 106 83 40 19 77 35 82 35 6 0 25 15
43 34 29 30 33 39 27 68 -3 18 -12 72 -18 119 -10 81 -10 90 10 132 50 106
171 115 266 21 28 -28 28 -31 23 -109 -4 -65 -9 -88 -31 -119 -50 -74 -31
-133 57 -177 73 -38 118 -72 133 -101 16 -31 64 -204 64 -231 0 -11 -11 -22
-29 -28 -37 -13 -45 -33 -30 -77 11 -34 9 -171 -6 -377 -5 -82 -9 -92 -34
-115 -26 -23 -28 -33 -34 -117 l-6 -93 440 0 439 0 1 58 c0 31 2 67 5 80 2 13
-1 33 -8 45 -19 33 -19 99 -1 120 15 15 15 17 -1 17 -16 0 -16 2 -2 28 21 39
62 156 81 231 9 36 27 85 40 111 13 25 26 62 30 82 10 55 37 91 87 116 68 34
73 43 37 78 -58 55 -71 107 -49 200 9 40 6 60 -25 170 -9 30 63 112 133 151
74 41 189 54 272 29 95 -28 90 -36 90 129 l0 145 -1600 0 -1600 0 0 -895z
m2128 403 c29 -29 2 -158 -33 -158 -19 0 -19 -29 -1 -49 20 -23 22 -206 3
-361 -9 -76 -11 -132 -6 -142 5 -9 9 -49 9 -87 0 -67 -1 -70 -18 -60 -14 9
-19 25 -21 63 -3 100 -43 82 -65 -29 -8 -39 -24 -92 -36 -119 -19 -42 -21 -55
-11 -81 6 -17 11 -36 11 -42 0 -14 -69 -55 -81 -48 -15 10 -10 71 15 173 52
211 53 253 5 281 -27 15 -29 20 -29 77 0 41 5 66 14 73 19 16 29 77 16 100 -5
11 -10 58 -11 105 -1 74 3 92 24 129 13 23 30 71 38 106 10 46 19 66 34 72 31
12 130 10 143 -3z"/>
<path d="M1054 732 c-11 -9 -35 -53 -54 -97 -18 -44 -56 -132 -85 -195 -63 -138 -72
-185 -49 -252 20 -62 14 -78 -31 -78 -29 0 -37 -5 -45 -26 -6 -14 -10 -36 -10
-50 l0 -24 166 0 167 0 -7 48 c-18 128 -19 231 -2 281 20 60 20 75 2 104 -9
15 -13 61 -14 142 -1 67 -5 131 -9 142 -8 21 -9 21 -29 5z"/>
</g>
</svg>
